<?xml version="1.0" standalone="no"?><!DOCTYPE svg PUBLIC "-//W3C//DTD SVG 1.1//EN" "http://www.w3.org/Graphics/SVG/1.1/DTD/svg11.dtd"><svg t="1677996713051" class="icon" viewBox="0 0 1024 1024" version="1.1" xmlns="http://www.w3.org/2000/svg" p-id="2989" xmlns:xlink="http://www.w3.org/1999/xlink" width="200" height="200"><path d="M521.117808 707.682192c24.547945 0 44.186301 19.638356 44.186302 44.186301s-19.638356 44.186301-44.186302 44.186302-44.186301-19.638356-44.186301-44.186302 19.638356-44.186301 44.186301-44.186301z m-53.304109-65.227397l-42.783562-388.558905c-0.70137-14.027397 5.610959-25.950685 15.430137-25.950685h136.065753c9.117808 0 16.131507 11.923288 15.430137 25.950685l-42.783561 388.558905c-0.70137 7.013699-5.610959 11.923288-11.923288 11.923287h-56.109589c-7.715068 0-13.326027-5.610959-13.326027-11.923287zM512 1009.972603c-274.936986 0-497.972603-223.035616-497.972603-497.972603S237.063014 14.027397 512 14.027397c92.580822 0 223.035616 31.561644 253.89589 70.136987 2.10411 11.221918 1.40274 25.249315-4.909589 36.471232-14.027397 26.652055-34.367123 29.457534-49.79726 34.367124-58.915068-32.964384-126.947945-51.90137-199.189041-51.90137-225.841096 0-408.89863 183.057534-408.89863 408.89863 0 225.841096 183.057534 408.89863 408.89863 408.89863 225.841096 0 408.89863-183.057534 408.89863-408.89863 0-114.323288-28.756164-199.189041-104.504109-273.534247-9.117808-20.339726 7.715068-44.186301 28.756164-51.901369 19.638356-7.013699 32.263014-6.312329 46.991781 2.104109C976.306849 277.742466 1009.972603 380.142466 1009.972603 512c0 274.936986-223.035616 497.972603-497.972603 497.972603z" fill="" p-id="2990"></path></svg>